<?xml version="1.0" encoding="UTF-8" standalone="no"?>
<!DOCTYPE svg PUBLIC "-//W3C//DTD SVG 1.1//EN"
 "http://www.w3.org/Graphics/SVG/1.1/DTD/svg11.dtd">
<!-- Generated by graphviz version 2.43.0 (0)
 -->
<!-- Title: examples/CryptnoxWallet.cpp Pages: 1 -->
<svg width="238pt" height="192pt"
 viewBox="0.00 0.00 238.00 192.00" xmlns="http://www.w3.org/2000/svg" xmlns:xlink="http://www.w3.org/1999/xlink">
<g id="graph0" class="graph" transform="scale(1 1) rotate(0) translate(4 188)">
<title>examples/CryptnoxWallet.cpp</title>
<!-- Node1 -->
<g id="Node000001" class="node">
<title>Node1</title>
<g id="a_Node000001"><a xlink:title=" ">
<polygon fill="#999999" stroke="#666666" points="192,-184 29,-184 29,-165 192,-165 192,-184"/>
<text text-anchor="middle" x="110.5" y="-172" font-family="Helvetica,sans-Serif" font-size="10.00">examples/CryptnoxWallet.cpp</text>
</a>
</g>
</g>
<!-- Node2 -->
<g id="Node000002" class="node">
<title>Node2</title>
<g id="a_Node000002"><a xlink:title=" ">
<polygon fill="#e0e0e0" stroke="#999999" points="63,-74 0,-74 0,-55 63,-55 63,-74"/>
<text text-anchor="middle" x="31.5" y="-62" font-family="Helvetica,sans-Serif" font-size="10.00">Arduino.h</text>
</a>
</g>
</g>
<!-- Node1&#45;&gt;Node2 -->
<g id="edge1_Node000001_Node000002" class="edge">
<title>Node1&#45;&gt;Node2</title>
<g id="a_edge1_Node000001_Node000002"><a xlink:title=" ">
<path fill="none" stroke="#63b8ff" d="M93.63,-164.97C80.1,-157.3 61.6,-144.82 50.5,-129 41.1,-115.6 36.28,-97.5 33.86,-84.05"/>
<polygon fill="#63b8ff" stroke="#63b8ff" points="37.3,-83.41 32.33,-74.05 30.38,-84.47 37.3,-83.41"/>
</a>
</g>
</g>
<!-- Node3 -->
<g id="Node000003" class="node">
<title>Node3</title>
<g id="a_Node000003"><a xlink:href="CryptnoxWallet_8h.html" target="_top" xlink:title=" ">
<polygon fill="white" stroke="#666666" points="161,-129 60,-129 60,-110 161,-110 161,-129"/>
<text text-anchor="middle" x="110.5" y="-117" font-family="Helvetica,sans-Serif" font-size="10.00">CryptnoxWallet.h</text>
</a>
</g>
</g>
<!-- Node1&#45;&gt;Node3 -->
<g id="edge2_Node000001_Node000003" class="edge">
<title>Node1&#45;&gt;Node3</title>
<g id="a_edge2_Node000001_Node000003"><a xlink:title=" ">
<path fill="none" stroke="#63b8ff" d="M110.5,-164.75C110.5,-157.8 110.5,-147.85 110.5,-139.13"/>
<polygon fill="#63b8ff" stroke="#63b8ff" points="114,-139.09 110.5,-129.09 107,-139.09 114,-139.09"/>
</a>
</g>
</g>
<!-- Node6 -->
<g id="Node000006" class="node">
<title>Node6</title>
<g id="a_Node000006"><a xlink:title=" ">
<polygon fill="#e0e0e0" stroke="#999999" points="230,-129 179,-129 179,-110 230,-110 230,-129"/>
<text text-anchor="middle" x="204.5" y="-117" font-family="Helvetica,sans-Serif" font-size="10.00">uECC.h</text>
</a>
</g>
</g>
<!-- Node1&#45;&gt;Node6 -->
<g id="edge6_Node000001_Node000006" class="edge">
<title>Node1&#45;&gt;Node6</title>
<g id="a_edge6_Node000001_Node000006"><a xlink:title=" ">
<path fill="none" stroke="#63b8ff" d="M125.6,-164.98C140.32,-156.69 162.92,-143.94 180.17,-134.22"/>
<polygon fill="#63b8ff" stroke="#63b8ff" points="182.13,-137.13 189.12,-129.17 178.69,-131.03 182.13,-137.13"/>
</a>
</g>
</g>
<!-- Node3&#45;&gt;Node2 -->
<g id="edge5_Node000003_Node000002" class="edge">
<title>Node3&#45;&gt;Node2</title>
<g id="a_edge5_Node000003_Node000002"><a xlink:title=" ">
<path fill="none" stroke="#63b8ff" d="M97.81,-109.98C85.67,-101.84 67.14,-89.41 52.75,-79.76"/>
<polygon fill="#63b8ff" stroke="#63b8ff" points="54.68,-76.84 44.42,-74.17 50.78,-82.65 54.68,-76.84"/>
</a>
</g>
</g>
<!-- Node4 -->
<g id="Node000004" class="node">
<title>Node4</title>
<g id="a_Node000004"><a xlink:href="PN532Base_8h.html" target="_top" xlink:title=" ">
<polygon fill="white" stroke="#666666" points="162,-74 81,-74 81,-55 162,-55 162,-74"/>
<text text-anchor="middle" x="121.5" y="-62" font-family="Helvetica,sans-Serif" font-size="10.00">PN532Base.h</text>
</a>
</g>
</g>
<!-- Node3&#45;&gt;Node4 -->
<g id="edge3_Node000003_Node000004" class="edge">
<title>Node3&#45;&gt;Node4</title>
<g id="a_edge3_Node000003_Node000004"><a xlink:title=" ">
<path fill="none" stroke="#63b8ff" d="M112.32,-109.75C113.76,-102.8 115.82,-92.85 117.63,-84.13"/>
<polygon fill="#63b8ff" stroke="#63b8ff" points="121.11,-84.59 119.72,-74.09 114.26,-83.17 121.11,-84.59"/>
</a>
</g>
</g>
<!-- Node5 -->
<g id="Node000005" class="node">
<title>Node5</title>
<g id="a_Node000005"><a xlink:title=" ">
<polygon fill="#e0e0e0" stroke="#999999" points="172,-19 71,-19 71,0 172,0 172,-19"/>
<text text-anchor="middle" x="121.5" y="-7" font-family="Helvetica,sans-Serif" font-size="10.00">Adafruit_PN532.h</text>
</a>
</g>
</g>
<!-- Node4&#45;&gt;Node5 -->
<g id="edge4_Node000004_Node000005" class="edge">
<title>Node4&#45;&gt;Node5</title>
<g id="a_edge4_Node000004_Node000005"><a xlink:title=" ">
<path fill="none" stroke="#63b8ff" d="M121.5,-54.75C121.5,-47.8 121.5,-37.85 121.5,-29.13"/>
<polygon fill="#63b8ff" stroke="#63b8ff" points="125,-29.09 121.5,-19.09 118,-29.09 125,-29.09"/>
</a>
</g>
</g>
</g>
</svg>
