<?xml version="1.0" encoding="UTF-8" standalone="no"?>
<!DOCTYPE svg PUBLIC "-//W3C//DTD SVG 1.1//EN"
 "http://www.w3.org/Graphics/SVG/1.1/DTD/svg11.dtd">
<!-- Generated by graphviz version 2.43.0 (0)
 -->
<!-- Title: examples/CryptnoxWallet.cpp Pages: 1 -->
<svg width="335pt" height="192pt"
 viewBox="0.00 0.00 334.50 192.00" xmlns="http://www.w3.org/2000/svg" xmlns:xlink="http://www.w3.org/1999/xlink">
<g id="graph0" class="graph" transform="scale(1 1) rotate(0) translate(4 188)">
<title>examples/CryptnoxWallet.cpp</title>
<!-- Node1 -->
<g id="Node000001" class="node">
<title>Node1</title>
<g id="a_Node000001"><a xlink:title=" ">
<polygon fill="#999999" stroke="#666666" points="168,-184 5,-184 5,-165 168,-165 168,-184"/>
<text text-anchor="middle" x="86.5" y="-172" font-family="Helvetica,sans-Serif" font-size="10.00">examples/CryptnoxWallet.cpp</text>
</a>
</g>
</g>
<!-- Node2 -->
<g id="Node000002" class="node">
<title>Node2</title>
<g id="a_Node000002"><a xlink:href="CryptnoxWallet_8h.html" target="_top" xlink:title=" ">
<polygon fill="white" stroke="#666666" points="137,-129 36,-129 36,-110 137,-110 137,-129"/>
<text text-anchor="middle" x="86.5" y="-117" font-family="Helvetica,sans-Serif" font-size="10.00">CryptnoxWallet.h</text>
</a>
</g>
</g>
<!-- Node1&#45;&gt;Node2 -->
<g id="edge1_Node000001_Node000002" class="edge">
<title>Node1&#45;&gt;Node2</title>
<g id="a_edge1_Node000001_Node000002"><a xlink:title=" ">
<path fill="none" stroke="#63b8ff" d="M86.5,-164.75C86.5,-157.8 86.5,-147.85 86.5,-139.13"/>
<polygon fill="#63b8ff" stroke="#63b8ff" points="90,-139.09 86.5,-129.09 83,-139.09 90,-139.09"/>
</a>
</g>
</g>
<!-- Node3 -->
<g id="Node000003" class="node">
<title>Node3</title>
<g id="a_Node000003"><a xlink:title=" ">
<polygon fill="#e0e0e0" stroke="#999999" points="63,-19 0,-19 0,0 63,0 63,-19"/>
<text text-anchor="middle" x="31.5" y="-7" font-family="Helvetica,sans-Serif" font-size="10.00">Arduino.h</text>
</a>
</g>
</g>
<!-- Node1&#45;&gt;Node3 -->
<g id="edge5_Node000001_Node000003" class="edge">
<title>Node1&#45;&gt;Node3</title>
<g id="a_edge5_Node000001_Node000003"><a xlink:title=" ">
<path fill="none" stroke="#63b8ff" d="M66.92,-164.98C52.83,-157.68 34.9,-145.68 26.5,-129 10.28,-96.78 18.6,-53.17 25.47,-28.84"/>
<polygon fill="#63b8ff" stroke="#63b8ff" points="28.86,-29.72 28.43,-19.13 22.17,-27.68 28.86,-29.72"/>
</a>
</g>
</g>
<!-- Node5 -->
<g id="Node000005" class="node">
<title>Node5</title>
<g id="a_Node000005"><a xlink:href="PN532I2C_8h.html" target="_top" xlink:title=" ">
<polygon fill="white" stroke="#666666" points="237,-129 164,-129 164,-110 237,-110 237,-129"/>
<text text-anchor="middle" x="200.5" y="-117" font-family="Helvetica,sans-Serif" font-size="10.00">PN532I2C.h</text>
</a>
</g>
</g>
<!-- Node1&#45;&gt;Node5 -->
<g id="edge6_Node000001_Node000005" class="edge">
<title>Node1&#45;&gt;Node5</title>
<g id="a_edge6_Node000001_Node000005"><a xlink:title=" ">
<path fill="none" stroke="#63b8ff" d="M104.82,-164.98C123.16,-156.46 151.61,-143.23 172.73,-133.41"/>
<polygon fill="#63b8ff" stroke="#63b8ff" points="174.26,-136.56 181.85,-129.17 171.31,-130.21 174.26,-136.56"/>
</a>
</g>
</g>
<!-- Node2&#45;&gt;Node3 -->
<g id="edge2_Node000002_Node000003" class="edge">
<title>Node2&#45;&gt;Node3</title>
<g id="a_edge2_Node000002_Node000003"><a xlink:title=" ">
<path fill="none" stroke="#63b8ff" d="M77.62,-109.71C69.52,-101.24 57.73,-87.71 50.5,-74 43.02,-59.83 38.06,-42.29 35.09,-29.24"/>
<polygon fill="#63b8ff" stroke="#63b8ff" points="38.44,-28.2 32.97,-19.12 31.59,-29.63 38.44,-28.2"/>
</a>
</g>
</g>
<!-- Node4 -->
<g id="Node000004" class="node">
<title>Node4</title>
<g id="a_Node000004"><a xlink:href="PN532Base_8h.html" target="_top" xlink:title=" ">
<polygon fill="white" stroke="#666666" points="141,-74 60,-74 60,-55 141,-55 141,-74"/>
<text text-anchor="middle" x="100.5" y="-62" font-family="Helvetica,sans-Serif" font-size="10.00">PN532Base.h</text>
</a>
</g>
</g>
<!-- Node2&#45;&gt;Node4 -->
<g id="edge3_Node000002_Node000004" class="edge">
<title>Node2&#45;&gt;Node4</title>
<g id="a_edge3_Node000002_Node000004"><a xlink:title=" ">
<path fill="none" stroke="#63b8ff" d="M88.81,-109.75C90.67,-102.72 93.34,-92.62 95.65,-83.84"/>
<polygon fill="#63b8ff" stroke="#63b8ff" points="99.06,-84.65 98.23,-74.09 92.29,-82.86 99.06,-84.65"/>
</a>
</g>
</g>
<!-- Node4&#45;&gt;Node3 -->
<g id="edge4_Node000004_Node000003" class="edge">
<title>Node4&#45;&gt;Node3</title>
<g id="a_edge4_Node000004_Node000003"><a xlink:title=" ">
<path fill="none" stroke="#63b8ff" d="M89.41,-54.98C79.01,-47 63.24,-34.88 50.78,-25.31"/>
<polygon fill="#63b8ff" stroke="#63b8ff" points="52.85,-22.49 42.79,-19.17 48.59,-28.04 52.85,-22.49"/>
</a>
</g>
</g>
<!-- Node5&#45;&gt;Node4 -->
<g id="edge7_Node000005_Node000004" class="edge">
<title>Node5&#45;&gt;Node4</title>
<g id="a_edge7_Node000005_Node000004"><a xlink:title=" ">
<path fill="none" stroke="#63b8ff" d="M184.43,-109.98C168.64,-101.61 144.28,-88.7 125.87,-78.95"/>
<polygon fill="#63b8ff" stroke="#63b8ff" points="127.33,-75.76 116.86,-74.17 124.06,-81.95 127.33,-75.76"/>
</a>
</g>
</g>
<!-- Node6 -->
<g id="Node000006" class="node">
<title>Node6</title>
<g id="a_Node000006"><a xlink:title=" ">
<polygon fill="#e0e0e0" stroke="#999999" points="326.5,-74 278.5,-74 278.5,-55 326.5,-55 326.5,-74"/>
<text text-anchor="middle" x="302.5" y="-62" font-family="Helvetica,sans-Serif" font-size="10.00">Wire.h</text>
</a>
</g>
</g>
<!-- Node5&#45;&gt;Node6 -->
<g id="edge8_Node000005_Node000006" class="edge">
<title>Node5&#45;&gt;Node6</title>
<g id="a_edge8_Node000005_Node000006"><a xlink:title=" ">
<path fill="none" stroke="#63b8ff" d="M216.89,-109.98C233.07,-101.57 258.07,-88.59 276.88,-78.81"/>
<polygon fill="#63b8ff" stroke="#63b8ff" points="278.55,-81.89 285.81,-74.17 275.33,-75.68 278.55,-81.89"/>
</a>
</g>
</g>
<!-- Node7 -->
<g id="Node000007" class="node">
<title>Node7</title>
<g id="a_Node000007"><a xlink:title=" ">
<polygon fill="#e0e0e0" stroke="#999999" points="260,-74 159,-74 159,-55 260,-55 260,-74"/>
<text text-anchor="middle" x="209.5" y="-62" font-family="Helvetica,sans-Serif" font-size="10.00">Adafruit_PN532.h</text>
</a>
</g>
</g>
<!-- Node5&#45;&gt;Node7 -->
<g id="edge9_Node000005_Node000007" class="edge">
<title>Node5&#45;&gt;Node7</title>
<g id="a_edge9_Node000005_Node000007"><a xlink:title=" ">
<path fill="none" stroke="#63b8ff" d="M201.99,-109.75C203.17,-102.8 204.86,-92.85 206.34,-84.13"/>
<polygon fill="#63b8ff" stroke="#63b8ff" points="209.82,-84.53 208.04,-74.09 202.92,-83.36 209.82,-84.53"/>
</a>
</g>
</g>
</g>
</svg>
