<?xml version="1.0" encoding="UTF-8" standalone="no"?>
<!DOCTYPE svg PUBLIC "-//W3C//DTD SVG 1.1//EN"
 "http://www.w3.org/Graphics/SVG/1.1/DTD/svg11.dtd">
<!-- Generated by graphviz version 2.43.0 (0)
 -->
<!-- Title: examples/PN532I2C.cpp Pages: 1 -->
<svg width="292pt" height="192pt"
 viewBox="0.00 0.00 291.71 192.00" xmlns="http://www.w3.org/2000/svg" xmlns:xlink="http://www.w3.org/1999/xlink">
<g id="graph0" class="graph" transform="scale(1 1) rotate(0) translate(4 188)">
<title>examples/PN532I2C.cpp</title>
<!-- Node1 -->
<g id="Node000001" class="node">
<title>Node1</title>
<g id="a_Node000001"><a xlink:title=" ">
<polygon fill="#999999" stroke="#666666" points="277,-184 142,-184 142,-165 277,-165 277,-184"/>
<text text-anchor="middle" x="209.5" y="-172" font-family="Helvetica,sans-Serif" font-size="10.00">examples/PN532I2C.cpp</text>
</a>
</g>
</g>
<!-- Node2 -->
<g id="Node000002" class="node">
<title>Node2</title>
<g id="a_Node000002"><a xlink:href="PN532I2C_8h.html" target="_top" xlink:title=" ">
<polygon fill="white" stroke="#666666" points="207,-129 134,-129 134,-110 207,-110 207,-129"/>
<text text-anchor="middle" x="170.5" y="-117" font-family="Helvetica,sans-Serif" font-size="10.00">PN532I2C.h</text>
</a>
</g>
</g>
<!-- Node1&#45;&gt;Node2 -->
<g id="edge1_Node000001_Node000002" class="edge">
<title>Node1&#45;&gt;Node2</title>
<g id="a_edge1_Node000001_Node000002"><a xlink:title=" ">
<path fill="none" stroke="#63b8ff" d="M203.06,-164.75C197.61,-157.34 189.64,-146.5 182.94,-137.41"/>
<polygon fill="#63b8ff" stroke="#63b8ff" points="185.57,-135.07 176.82,-129.09 179.93,-139.22 185.57,-135.07"/>
</a>
</g>
</g>
<!-- Node4 -->
<g id="Node000004" class="node">
<title>Node4</title>
<g id="a_Node000004"><a xlink:title=" ">
<polygon fill="#e0e0e0" stroke="#999999" points="199,-19 136,-19 136,0 199,0 199,-19"/>
<text text-anchor="middle" x="167.5" y="-7" font-family="Helvetica,sans-Serif" font-size="10.00">Arduino.h</text>
</a>
</g>
</g>
<!-- Node1&#45;&gt;Node4 -->
<g id="edge6_Node000001_Node000004" class="edge">
<title>Node1&#45;&gt;Node4</title>
<g id="a_edge6_Node000001_Node000004"><a xlink:title=" ">
<path fill="none" stroke="#63b8ff" d="M221.12,-164.9C246.58,-144.99 302.99,-94.43 276.5,-55 261.49,-32.66 233.08,-21.53 209.03,-15.98"/>
<polygon fill="#63b8ff" stroke="#63b8ff" points="209.54,-12.52 199.04,-13.93 208.13,-19.37 209.54,-12.52"/>
</a>
</g>
</g>
<!-- Node3 -->
<g id="Node000003" class="node">
<title>Node3</title>
<g id="a_Node000003"><a xlink:href="PN532Base_8h.html" target="_top" xlink:title=" ">
<polygon fill="white" stroke="#666666" points="81,-74 0,-74 0,-55 81,-55 81,-74"/>
<text text-anchor="middle" x="40.5" y="-62" font-family="Helvetica,sans-Serif" font-size="10.00">PN532Base.h</text>
</a>
</g>
</g>
<!-- Node2&#45;&gt;Node3 -->
<g id="edge2_Node000002_Node000003" class="edge">
<title>Node2&#45;&gt;Node3</title>
<g id="a_edge2_Node000002_Node000003"><a xlink:title=" ">
<path fill="none" stroke="#63b8ff" d="M149.61,-109.98C128.42,-101.34 95.37,-87.87 71.2,-78.02"/>
<polygon fill="#63b8ff" stroke="#63b8ff" points="72.35,-74.7 61.77,-74.17 69.71,-81.19 72.35,-74.7"/>
</a>
</g>
</g>
<!-- Node5 -->
<g id="Node000005" class="node">
<title>Node5</title>
<g id="a_Node000005"><a xlink:title=" ">
<polygon fill="#e0e0e0" stroke="#999999" points="147.5,-74 99.5,-74 99.5,-55 147.5,-55 147.5,-74"/>
<text text-anchor="middle" x="123.5" y="-62" font-family="Helvetica,sans-Serif" font-size="10.00">Wire.h</text>
</a>
</g>
</g>
<!-- Node2&#45;&gt;Node5 -->
<g id="edge4_Node000002_Node000005" class="edge">
<title>Node2&#45;&gt;Node5</title>
<g id="a_edge4_Node000002_Node000005"><a xlink:title=" ">
<path fill="none" stroke="#63b8ff" d="M162.74,-109.75C156.03,-102.18 146.16,-91.05 137.99,-81.84"/>
<polygon fill="#63b8ff" stroke="#63b8ff" points="140.37,-79.25 131.12,-74.09 135.13,-83.89 140.37,-79.25"/>
</a>
</g>
</g>
<!-- Node6 -->
<g id="Node000006" class="node">
<title>Node6</title>
<g id="a_Node000006"><a xlink:title=" ">
<polygon fill="#e0e0e0" stroke="#999999" points="267,-74 166,-74 166,-55 267,-55 267,-74"/>
<text text-anchor="middle" x="216.5" y="-62" font-family="Helvetica,sans-Serif" font-size="10.00">Adafruit_PN532.h</text>
</a>
</g>
</g>
<!-- Node2&#45;&gt;Node6 -->
<g id="edge5_Node000002_Node000006" class="edge">
<title>Node2&#45;&gt;Node6</title>
<g id="a_edge5_Node000002_Node000006"><a xlink:title=" ">
<path fill="none" stroke="#63b8ff" d="M178.1,-109.75C184.66,-102.18 194.32,-91.05 202.31,-81.84"/>
<polygon fill="#63b8ff" stroke="#63b8ff" points="205.13,-83.94 209.05,-74.09 199.85,-79.35 205.13,-83.94"/>
</a>
</g>
</g>
<!-- Node3&#45;&gt;Node4 -->
<g id="edge3_Node000003_Node000004" class="edge">
<title>Node3&#45;&gt;Node4</title>
<g id="a_edge3_Node000003_Node000004"><a xlink:title=" ">
<path fill="none" stroke="#63b8ff" d="M60.9,-54.98C81.52,-46.38 113.61,-32.99 137.19,-23.15"/>
<polygon fill="#63b8ff" stroke="#63b8ff" points="138.84,-26.25 146.72,-19.17 136.15,-19.79 138.84,-26.25"/>
</a>
</g>
</g>
</g>
</svg>
