<?xml version="1.0" encoding="UTF-8" standalone="no"?>
<!DOCTYPE svg PUBLIC "-//W3C//DTD SVG 1.1//EN"
 "http://www.w3.org/Graphics/SVG/1.1/DTD/svg11.dtd">
<!-- Generated by graphviz version 2.43.0 (0)
 -->
<!-- Title: examples/PN532I2C.h Pages: 1 -->
<svg width="275pt" height="137pt"
 viewBox="0.00 0.00 275.00 137.00" xmlns="http://www.w3.org/2000/svg" xmlns:xlink="http://www.w3.org/1999/xlink">
<g id="graph0" class="graph" transform="scale(1 1) rotate(0) translate(4 133)">
<title>examples/PN532I2C.h</title>
<!-- Node1 -->
<g id="Node000001" class="node">
<title>Node1</title>
<g id="a_Node000001"><a xlink:title=" ">
<polygon fill="#999999" stroke="#666666" points="185.5,-129 61.5,-129 61.5,-110 185.5,-110 185.5,-129"/>
<text text-anchor="middle" x="123.5" y="-117" font-family="Helvetica,sans-Serif" font-size="10.00">examples/PN532I2C.h</text>
</a>
</g>
</g>
<!-- Node2 -->
<g id="Node000002" class="node">
<title>Node2</title>
<g id="a_Node000002"><a xlink:href="PN532Base_8h.html" target="_top" xlink:title=" ">
<polygon fill="white" stroke="#666666" points="81,-74 0,-74 0,-55 81,-55 81,-74"/>
<text text-anchor="middle" x="40.5" y="-62" font-family="Helvetica,sans-Serif" font-size="10.00">PN532Base.h</text>
</a>
</g>
</g>
<!-- Node1&#45;&gt;Node2 -->
<g id="edge1_Node000001_Node000002" class="edge">
<title>Node1&#45;&gt;Node2</title>
<g id="a_edge1_Node000001_Node000002"><a xlink:title=" ">
<path fill="none" stroke="#63b8ff" d="M110.16,-109.98C97.41,-101.84 77.95,-89.41 62.83,-79.76"/>
<polygon fill="#63b8ff" stroke="#63b8ff" points="64.39,-76.6 54.08,-74.17 60.62,-82.5 64.39,-76.6"/>
</a>
</g>
</g>
<!-- Node4 -->
<g id="Node000004" class="node">
<title>Node4</title>
<g id="a_Node000004"><a xlink:title=" ">
<polygon fill="#e0e0e0" stroke="#999999" points="147.5,-74 99.5,-74 99.5,-55 147.5,-55 147.5,-74"/>
<text text-anchor="middle" x="123.5" y="-62" font-family="Helvetica,sans-Serif" font-size="10.00">Wire.h</text>
</a>
</g>
</g>
<!-- Node1&#45;&gt;Node4 -->
<g id="edge3_Node000001_Node000004" class="edge">
<title>Node1&#45;&gt;Node4</title>
<g id="a_edge3_Node000001_Node000004"><a xlink:title=" ">
<path fill="none" stroke="#63b8ff" d="M123.5,-109.75C123.5,-102.8 123.5,-92.85 123.5,-84.13"/>
<polygon fill="#63b8ff" stroke="#63b8ff" points="127,-84.09 123.5,-74.09 120,-84.09 127,-84.09"/>
</a>
</g>
</g>
<!-- Node5 -->
<g id="Node000005" class="node">
<title>Node5</title>
<g id="a_Node000005"><a xlink:title=" ">
<polygon fill="#e0e0e0" stroke="#999999" points="267,-74 166,-74 166,-55 267,-55 267,-74"/>
<text text-anchor="middle" x="216.5" y="-62" font-family="Helvetica,sans-Serif" font-size="10.00">Adafruit_PN532.h</text>
</a>
</g>
</g>
<!-- Node1&#45;&gt;Node5 -->
<g id="edge4_Node000001_Node000005" class="edge">
<title>Node1&#45;&gt;Node5</title>
<g id="a_edge4_Node000001_Node000005"><a xlink:title=" ">
<path fill="none" stroke="#63b8ff" d="M138.44,-109.98C153,-101.69 175.37,-88.94 192.43,-79.22"/>
<polygon fill="#63b8ff" stroke="#63b8ff" points="194.33,-82.16 201.29,-74.17 190.86,-76.08 194.33,-82.16"/>
</a>
</g>
</g>
<!-- Node3 -->
<g id="Node000003" class="node">
<title>Node3</title>
<g id="a_Node000003"><a xlink:title=" ">
<polygon fill="#e0e0e0" stroke="#999999" points="72,-19 9,-19 9,0 72,0 72,-19"/>
<text text-anchor="middle" x="40.5" y="-7" font-family="Helvetica,sans-Serif" font-size="10.00">Arduino.h</text>
</a>
</g>
</g>
<!-- Node2&#45;&gt;Node3 -->
<g id="edge2_Node000002_Node000003" class="edge">
<title>Node2&#45;&gt;Node3</title>
<g id="a_edge2_Node000002_Node000003"><a xlink:title=" ">
<path fill="none" stroke="#63b8ff" d="M40.5,-54.75C40.5,-47.8 40.5,-37.85 40.5,-29.13"/>
<polygon fill="#63b8ff" stroke="#63b8ff" points="44,-29.09 40.5,-19.09 37,-29.09 44,-29.09"/>
</a>
</g>
</g>
</g>
</svg>
